<svg data-v-423bf9ae="" xmlns="http://www.w3.org/2000/svg" viewBox="0 0 319.9620989008247 60" class="font"><!----><!----><!----><g data-v-423bf9ae="" id="301eb08d-02e2-4bf2-965f-50fc32362782" fill="white" transform="matrix(5.6872042027481005,0,0,5.6872042027481005,-4.720372850173419,-18.36966920651402)"><path d="M12.32 7.78C12.15 6.76 11.33 5.92 9.87 5.92C9.20 5.92 8.71 6.06 8.27 6.36L7.52 7.36C7.21 6.54 6.44 5.92 5.19 5.92C4.51 5.92 4.03 6.06 3.58 6.36L3.02 7.28L3.02 6.12L0.83 6.12L0.83 13.58L3.02 13.58L3.02 9.70C3.02 8.18 3.43 7.43 4.27 7.43C4.98 7.43 5.36 7.85 5.46 8.60C5.50 8.97 5.52 9.38 5.52 9.73L5.52 13.58L7.70 13.58L7.70 9.70C7.70 8.18 8.12 7.43 8.96 7.43C9.66 7.43 10.05 7.85 10.14 8.60C10.18 8.97 10.19 9.38 10.19 9.73L10.19 13.58L12.39 13.58L12.39 9.17C12.39 8.57 12.38 8.16 12.32 7.78ZM18.31 13.58L20.45 13.58C20.34 12.75 20.31 12.25 20.31 11.69L20.31 9.42C20.31 8.99 20.30 8.57 20.27 8.22C20.16 6.89 19.36 5.92 17.15 5.92C15.33 5.92 13.89 6.89 13.85 8.60L15.95 8.60C16.00 7.85 16.38 7.43 17.07 7.43C17.72 7.43 18.06 7.80 18.10 8.25C18.13 8.50 18.13 8.69 18.13 8.89L18.13 9.02L17.65 9.02C15.02 9.02 13.58 9.97 13.58 11.59C13.58 13.01 14.71 13.78 15.97 13.78C16.66 13.78 17.29 13.62 17.82 13.29L18.16 12.49ZM16.84 12.26C16.24 12.26 15.83 11.97 15.83 11.41C15.83 10.54 16.77 10.21 18.13 10.32L18.13 10.86C18.13 11.79 17.50 12.26 16.84 12.26ZM24.61 7.57L26.19 7.57L26.19 6.17L24.61 6.17L24.61 4.30L22.41 4.30L22.41 6.17L21.28 6.17L21.28 7.57L22.41 7.57L22.41 11.00C22.41 11.42 22.41 11.76 22.44 12.14C22.53 13.23 23.06 13.76 24.70 13.76C25.17 13.76 25.61 13.72 26.05 13.65L26.05 12.25C24.93 12.32 24.68 12.15 24.63 11.41C24.61 11.21 24.61 10.96 24.61 10.71ZM31.39 5.92C30.95 5.92 30.41 6.12 30.03 6.51L29.47 7.55L29.47 6.12L27.27 6.12L27.27 13.58L29.47 13.58L29.47 10.46C29.47 8.34 30.21 7.64 31.95 7.76L31.95 5.98C31.78 5.95 31.63 5.92 31.39 5.92ZM33.94 3.23C33.24 3.23 32.77 3.67 32.77 4.34C32.77 5.03 33.24 5.46 33.94 5.46C34.64 5.46 35.11 5.03 35.11 4.34C35.11 3.67 34.64 3.23 33.94 3.23ZM35.04 13.58L35.04 6.12L32.84 6.12L32.84 13.58ZM41.15 9.81L43.71 6.12L41.19 6.12L39.86 8.46L38.51 6.12L35.95 6.12L38.47 9.80L35.85 13.58L38.37 13.58L39.80 11.14L41.17 13.58L43.74 13.58ZM51.20 9.72C51.20 7.73 49.97 5.92 47.59 5.92C45.22 5.92 43.72 7.63 43.72 9.87C43.72 12.50 45.36 13.78 47.45 13.78C49.27 13.78 50.67 12.87 51.07 11.14L48.90 11.14C48.78 11.84 48.26 12.26 47.49 12.26C46.66 12.26 46.05 11.84 45.92 10.42L51.16 10.42C51.18 10.15 51.20 9.91 51.20 9.72ZM47.49 7.43C48.30 7.43 48.79 7.98 48.92 9.03L45.98 9.03C46.16 7.92 46.70 7.43 47.49 7.43ZM56.53 5.92C56.10 5.92 55.55 6.12 55.17 6.51L54.61 7.55L54.61 6.12L52.42 6.12L52.42 13.58L54.61 13.58L54.61 10.46C54.61 8.34 55.36 7.64 57.09 7.76L57.09 5.98C56.92 5.95 56.77 5.92 56.53 5.92Z"></path></g><!----><!----></svg>