<?xml version="1.0" standalone="no"?>
<!DOCTYPE svg PUBLIC "-//W3C//DTD SVG 20010904//EN"
 "http://www.w3.org/TR/2001/REC-SVG-20010904/DTD/svg10.dtd">
<svg version="1.0" xmlns="http://www.w3.org/2000/svg"
 width="1056.000000pt" height="1056.000000pt" viewBox="0 0 1056.000000 1056.000000"
 preserveAspectRatio="xMidYMid meet">
<metadata>
Created by potrace 1.11, written by Peter Selinger 2001-2013
</metadata>
<g transform="translate(0.000000,1056.000000) scale(0.100000,-0.100000)"
fill="#000000" stroke="none">
<path d="M3739 8775 c-2 -2 -40 -6 -84 -9 -44 -4 -91 -8 -105 -10 -14 -3 -45
-7 -70 -10 -60 -8 -195 -34 -245 -47 -22 -6 -47 -13 -55 -14 -8 -2 -15 -4 -15
-5 0 -1 -8 -3 -17 -5 -34 -6 -153 -48 -165 -58 -7 -5 -13 -7 -13 -4 0 11 -196
-81 -305 -141 -118 -66 -154 -93 -181 -140 -15 -26 -32 -50 -38 -54 -6 -4 -8
-8 -4 -8 4 0 -9 -26 -29 -57 -74 -116 -193 -316 -193 -324 0 -5 -4 -9 -10 -9
-5 0 -12 -11 -16 -25 -3 -14 -9 -25 -13 -25 -4 0 -20 -25 -36 -55 -17 -30 -33
-55 -37 -55 -5 0 -8 -6 -8 -14 0 -8 -6 -21 -13 -28 -6 -7 -21 -29 -31 -48 -11
-19 -27 -45 -37 -57 -16 -22 -17 -22 -22 -3 -3 11 -2 20 3 20 4 0 4 17 1 38
-4 20 -5 48 -4 62 3 20 4 99 3 213 0 6 1 47 2 90 2 42 0 77 -4 77 -4 0 -4 11
1 23 5 13 6 29 2 36 -5 7 -6 25 -4 39 3 21 4 154 2 297 0 6 1 30 2 55 0 25 0
52 0 61 -1 14 -97 16 -1001 15 l-1000 0 0 -3408 0 -3408 1000 0 1000 0 1 23
c0 12 0 56 0 97 -2 92 -2 80 1 173 2 42 0 77 -4 77 -4 0 -4 11 1 23 5 13 5 30
1 37 -5 8 -6 18 -3 23 8 14 9 77 1 77 -4 0 -4 11 1 23 5 13 6 29 2 36 -5 7 -6
25 -4 39 3 23 4 68 3 215 0 6 1 47 2 90 2 42 0 77 -4 77 -4 0 -4 11 1 23 5 13
6 29 2 36 -5 7 -6 25 -4 39 3 23 4 68 3 215 0 6 1 47 2 90 2 42 0 77 -4 77 -4
0 -4 11 1 23 5 13 6 29 2 36 -5 7 -6 25 -4 39 3 23 4 68 3 215 0 6 1 47 2 90
2 42 0 77 -4 77 -4 0 -4 11 1 23 5 13 6 29 2 36 -5 7 -6 25 -4 39 2 15 4 66 3
115 0 101 0 99 1 194 1 39 -2 77 -6 82 -3 6 -3 11 2 11 9 0 8 122 -1 146 -3 7
-2 14 2 14 8 0 6 124 -2 146 -3 8 -2 14 2 14 8 0 7 124 -2 146 -3 7 -2 14 2
14 8 0 7 103 -2 125 -3 8 -2 15 2 15 4 0 6 51 4 112 -3 108 -3 141 1 216 2 17
-1 32 -6 32 -4 0 -6 4 -3 9 3 5 8 116 11 247 3 132 8 262 10 289 3 28 7 77 9
110 3 33 7 74 10 90 2 17 7 59 11 95 4 36 8 67 10 70 3 5 16 86 21 130 1 14 3
25 4 25 1 0 3 7 5 15 1 8 7 33 13 55 6 22 13 51 15 65 6 32 57 202 65 215 4 6
7 15 8 20 1 6 8 24 15 40 7 17 13 32 13 35 5 22 77 158 113 215 99 152 205
255 343 333 66 37 226 92 279 96 20 1 42 5 47 9 19 11 330 -1 404 -16 405 -83
657 -339 778 -789 11 -40 23 -91 28 -113 4 -22 8 -42 9 -45 3 -10 15 -106 21
-160 6 -58 7 -70 18 -215 14 -181 30 -494 27 -550 -1 -22 -1 -44 -1 -50 0 -5
2 -833 3 -1840 l2 -1830 995 -3 995 -2 2 1897 c1 1044 4 1936 7 1983 7 130 17
252 21 280 2 14 7 50 9 80 3 30 8 66 11 80 3 14 7 41 10 60 3 19 7 48 11 63 3
16 7 38 8 50 2 12 6 31 9 42 3 11 8 32 11 46 5 30 44 177 53 199 4 8 7 17 8
20 19 75 105 269 151 341 16 24 34 53 40 65 39 72 191 220 289 282 73 45 195
90 320 118 44 9 365 12 365 3 0 -5 6 -6 14 -3 18 7 202 -40 269 -68 121 -51
253 -145 322 -231 22 -27 45 -54 52 -61 33 -37 96 -151 144 -261 51 -118 99
-349 114 -545 2 -30 7 -79 9 -107 23 -230 25 -441 25 -2470 l1 -1863 1006 0
1005 0 -4 2372 c-3 1305 -7 2405 -10 2443 -15 184 -17 214 -23 265 -3 30 -8
71 -10 90 -2 19 -5 46 -8 60 -2 14 -7 50 -11 80 -4 30 -10 60 -13 65 -4 6 -7
19 -8 30 -1 11 -7 40 -14 65 -7 25 -14 52 -15 60 -27 125 -150 397 -242 537
-115 176 -300 377 -423 463 -19 13 -37 27 -40 30 -10 13 -159 112 -190 126 -8
4 -26 15 -40 25 -14 9 -28 17 -32 18 -4 1 -47 20 -94 42 -77 36 -223 94 -264
105 -187 50 -251 66 -280 70 -19 3 -57 9 -85 14 -153 28 -238 34 -505 34 -206
0 -364 -6 -426 -18 -10 -2 -41 -7 -69 -10 -27 -4 -57 -9 -65 -11 -8 -2 -31 -6
-50 -9 -19 -3 -71 -15 -115 -26 -44 -11 -89 -22 -99 -25 -11 -2 -42 -12 -70
-22 -28 -9 -53 -17 -56 -18 -14 -1 -204 -83 -260 -113 -72 -38 -207 -117 -230
-135 -9 -7 -29 -30 -45 -52 -17 -22 -32 -42 -35 -45 -3 -3 -30 -39 -60 -80
-68 -93 -71 -97 -92 -121 -10 -10 -18 -23 -18 -28 0 -5 -4 -11 -8 -13 -5 -1
-28 -31 -52 -65 -24 -35 -48 -63 -52 -63 -4 0 -8 -7 -8 -15 0 -8 -4 -15 -10
-15 -5 0 -10 -6 -10 -14 0 -8 -4 -16 -8 -18 -5 -1 -38 -43 -75 -93 -36 -49
-73 -97 -82 -106 -8 -9 -15 -21 -15 -27 0 -7 -4 -12 -9 -12 -5 0 -23 -21 -40
-47 -17 -27 -42 -61 -55 -77 l-26 -29 -18 44 c-11 24 -23 55 -27 69 -4 14 -11
30 -15 35 -4 6 -29 50 -55 100 -26 49 -50 92 -53 95 -4 3 -13 16 -20 30 -7 14
-32 51 -55 82 -23 30 -53 71 -67 89 -33 46 -288 299 -301 299 -6 0 -16 6 -24
13 -127 120 -526 316 -740 363 -5 1 -28 6 -50 12 -38 10 -74 19 -120 27 -57
11 -154 27 -185 31 -19 2 -48 7 -65 9 -37 6 -571 16 -576 10z"/>
</g>
</svg>
